<svg width="28" height="28" viewBox="0 0 28 28" fill="none" xmlns="http://www.w3.org/2000/svg">
<path d="M14.0007 25.6663C12.4062 25.6663 10.8993 25.3599 9.47982 24.747C8.06037 24.1349 6.82098 23.2988 5.76165 22.2387C4.70154 21.1793 3.86543 19.94 3.25332 18.5205C2.64043 17.1011 2.33398 15.5941 2.33398 13.9997C2.33398 12.3858 2.64043 10.8742 3.25332 9.46484C3.86543 8.05473 4.70154 6.82001 5.76165 5.76067C6.82098 4.70056 8.06037 3.86406 9.47982 3.25117C10.8993 2.63906 12.4062 2.33301 14.0007 2.33301C15.6145 2.33301 17.1262 2.63906 18.5355 3.25117C19.9456 3.86406 21.1803 4.70056 22.2397 5.76067C23.2998 6.82001 24.1359 8.05473 24.748 9.46484C25.3609 10.8742 25.6673 12.3858 25.6673 13.9997C25.6673 15.5941 25.3609 17.1011 24.748 18.5205C24.1359 19.94 23.2998 21.1793 22.2397 22.2387C21.1803 23.2988 19.9456 24.1349 18.5355 24.747C17.1262 25.3599 15.6145 25.6663 14.0007 25.6663ZM14.0007 23.2747C14.5062 22.5747 14.9437 21.8455 15.3132 21.0872C15.6826 20.3288 15.984 19.5219 16.2173 18.6663H11.784C12.0173 19.5219 12.3187 20.3288 12.6882 21.0872C13.0576 21.8455 13.4951 22.5747 14.0007 23.2747ZM10.9673 22.808C10.6173 22.1663 10.3113 21.5002 10.0492 20.8095C9.78626 20.1196 9.56732 19.4052 9.39232 18.6663H5.95065C6.51454 19.6386 7.21921 20.4844 8.06465 21.2038C8.91087 21.9233 9.87843 22.458 10.9673 22.808ZM17.034 22.808C18.1229 22.458 19.09 21.9233 19.9355 21.2038C20.7817 20.4844 21.4868 19.6386 22.0507 18.6663H18.609C18.434 19.4052 18.2154 20.1196 17.9533 20.8095C17.6904 21.5002 17.384 22.1663 17.034 22.808ZM4.95898 16.333H8.92565C8.86732 15.9441 8.82337 15.5599 8.79382 15.1803C8.76504 14.8016 8.75065 14.408 8.75065 13.9997C8.75065 13.5913 8.76504 13.1978 8.79382 12.819C8.82337 12.4395 8.86732 12.0552 8.92565 11.6663H4.95898C4.86176 12.0552 4.78865 12.4395 4.73965 12.819C4.69143 13.1978 4.66732 13.5913 4.66732 13.9997C4.66732 14.408 4.69143 14.8016 4.73965 15.1803C4.78865 15.5599 4.86176 15.9441 4.95898 16.333ZM11.259 16.333H16.7423C16.8007 15.9441 16.8446 15.5599 16.8742 15.1803C16.9029 14.8016 16.9173 14.408 16.9173 13.9997C16.9173 13.5913 16.9029 13.1978 16.8742 12.819C16.8446 12.4395 16.8007 12.0552 16.7423 11.6663H11.259C11.2007 12.0552 11.1571 12.4395 11.1283 12.819C11.0988 13.1978 11.084 13.5913 11.084 13.9997C11.084 14.408 11.0988 14.8016 11.1283 15.1803C11.1571 15.5599 11.2007 15.9441 11.259 16.333ZM19.0757 16.333H23.0423C23.1395 15.9441 23.2127 15.5599 23.2617 15.1803C23.3099 14.8016 23.334 14.408 23.334 13.9997C23.334 13.5913 23.3099 13.1978 23.2617 12.819C23.2127 12.4395 23.1395 12.0552 23.0423 11.6663H19.0757C19.134 12.0552 19.1775 12.4395 19.2063 12.819C19.2359 13.1978 19.2507 13.5913 19.2507 13.9997C19.2507 14.408 19.2359 14.8016 19.2063 15.1803C19.1775 15.5599 19.134 15.9441 19.0757 16.333ZM18.609 9.33301H22.0507C21.4868 8.36079 20.7817 7.51495 19.9355 6.79551C19.09 6.07606 18.1229 5.54134 17.034 5.19134C17.384 5.83301 17.6904 6.49879 17.9533 7.18867C18.2154 7.87934 18.434 8.59412 18.609 9.33301ZM11.784 9.33301H16.2173C15.984 8.47745 15.6826 7.67051 15.3132 6.91218C14.9437 6.15384 14.5062 5.42467 14.0007 4.72467C13.4951 5.42467 13.0576 6.15384 12.6882 6.91218C12.3187 7.67051 12.0173 8.47745 11.784 9.33301ZM5.95065 9.33301H9.39232C9.56732 8.59412 9.78626 7.87934 10.0492 7.18867C10.3113 6.49879 10.6173 5.83301 10.9673 5.19134C9.87843 5.54134 8.91087 6.07606 8.06465 6.79551C7.21921 7.51495 6.51454 8.36079 5.95065 9.33301Z" fill="url(#paint0_linear_573_7736)"/>
<defs>
<linearGradient id="paint0_linear_573_7736" x1="6.12186" y1="25.6663" x2="29.1522" y2="25.6663" gradientUnits="userSpaceOnUse">
<stop offset="0.0416667" stop-color="#6B40DD"/>
<stop offset="1" stop-color="#9871FF"/>
</linearGradient>
</defs>
</svg>
