<svg width="24" height="24" viewBox="0 0 24 24" fill="none" xmlns="http://www.w3.org/2000/svg">
<path d="M8.75 10C8.75 8.20507 10.2051 6.75 12 6.75C13.7949 6.75 15.25 8.20507 15.25 10C15.25 11.7949 13.7949 13.25 12 13.25C10.2051 13.25 8.75 11.7949 8.75 10Z" fill="url(#paint0_linear_573_7719)"/>
<path fill-rule="evenodd" clip-rule="evenodd" d="M3.77354 8.87739C4.11718 4.70845 7.60097 1.5 11.7841 1.5H12.216C16.3991 1.5 19.8829 4.70845 20.2265 8.87739C20.4115 11.122 19.7182 13.3508 18.2925 15.0943L13.4995 20.9561C12.7245 21.9039 11.2756 21.9039 10.5006 20.9561L5.70752 15.0943C4.28187 13.3508 3.58852 11.122 3.77354 8.87739ZM12 5.25C9.37665 5.25 7.25 7.37665 7.25 10C7.25 12.6234 9.37665 14.75 12 14.75C14.6234 14.75 16.75 12.6234 16.75 10C16.75 7.37665 14.6234 5.25 12 5.25Z" fill="url(#paint1_linear_573_7719)"/>
<defs>
<linearGradient id="paint0_linear_573_7719" x1="6.42462" y1="21.6669" x2="22.722" y2="21.6669" gradientUnits="userSpaceOnUse">
<stop offset="0.0416667" stop-color="#6B40DD"/>
<stop offset="1" stop-color="#9871FF"/>
</linearGradient>
<linearGradient id="paint1_linear_573_7719" x1="6.42462" y1="21.6669" x2="22.722" y2="21.6669" gradientUnits="userSpaceOnUse">
<stop offset="0.0416667" stop-color="#6B40DD"/>
<stop offset="1" stop-color="#9871FF"/>
</linearGradient>
</defs>
</svg>
