<svg width="28" height="29" viewBox="0 0 28 29" fill="none" xmlns="http://www.w3.org/2000/svg">
<g clip-path="url(#clip0_175_5096)">
<mask id="mask0_175_5096" style="mask-type:alpha" maskUnits="userSpaceOnUse" x="0" y="0" width="28" height="29">
<path d="M14 29C21.732 29 28 22.5081 28 14.5C28 6.49187 21.732 0 14 0C6.26801 0 0 6.49187 0 14.5C0 22.5081 6.26801 29 14 29Z" fill="white"/>
</mask>
<g mask="url(#mask0_175_5096)">
<path d="M0 0L0.4375 1.24609L0 2.54883V3.85156L1.75 6.91016L0 9.96875V11.7812L1.75 14.5L0 17.2188V19.0312L1.75 22.0898L0 25.1484V29L1.20312 28.5469L2.46094 29H3.71875L6.67188 27.1875L9.625 29H11.375L14 27.1875L16.625 29H18.375L21.3281 27.1875L24.2812 29H28L27.5625 27.7539L28 26.4512V25.1484L26.25 22.0898L28 19.0312V17.2188L26.25 14.5L28 11.7812V9.96875L26.25 6.91016L28 3.85156V0L26.7969 0.453125L25.5391 0H24.2812L21.3281 1.8125L18.375 0H16.625L14 1.8125L11.375 0H9.625L6.67188 1.8125L3.71875 0H0Z" fill="#EEEEEE"/>
<path d="M18.375 0V6.11719L24.2812 0H18.375ZM28 3.85156L22.0938 9.96875H28V3.85156ZM0 9.96875H5.90625L0 3.85156V9.96875ZM3.71875 0L9.625 6.11719V0H3.71875ZM9.625 29V22.8828L3.71875 29H9.625ZM0 25.1484L5.90625 19.0312H0V25.1484ZM28 19.0312H22.0938L28 25.1484V19.0312ZM24.2812 29L18.375 22.8828V29H24.2812Z" fill="#31426D"/>
<path d="M0 0V2.54883L7.16406 9.96875H9.625L0 0ZM11.375 0V11.7812H0V17.2188H11.375V29H16.625V17.2188H28V11.7812H16.625V0H11.375ZM25.5391 0L18.375 7.41992V9.96875L28 0H25.5391ZM9.625 19.0312L0 29H2.46094L9.625 21.5801V19.0312ZM18.375 19.0312L28 29V26.4512L20.8359 19.0312H18.375Z" fill="#ED4C5C"/>
</g>
</g>
<defs>
<clipPath id="clip0_175_5096">
<rect width="28" height="29" fill="white"/>
</clipPath>
</defs>
</svg>
