<svg width="31" height="31" viewBox="0 0 31 31" fill="none" xmlns="http://www.w3.org/2000/svg">
<g clip-path="url(#clip0_452_15745)">
<mask id="mask0_452_15745" style="mask-type:luminance" maskUnits="userSpaceOnUse" x="0" y="0" width="31" height="31">
<path d="M15.5 0C24.0604 0 31 6.93959 31 15.5C31 24.0604 24.0604 31 15.5 31C6.93959 31 0 24.0604 0 15.5C0 6.93959 6.93959 0 15.5 0Z" fill="white"/>
</mask>
<g mask="url(#mask0_452_15745)">
<path d="M0 31L0.484375 29.668L0 28.2754V26.8828L1.9375 23.6133L0 20.3438V18.4062L1.9375 15.5L0 12.5938V10.6562L1.9375 7.38672L0 4.11719V0L1.33203 0.484375L2.72461 0H4.11719L7.38672 1.9375L10.6562 0H12.5938L15.5 1.9375L18.4062 0H20.3438L23.6133 1.9375L26.8828 0H31L30.5156 1.33203L31 2.72461V4.11719L29.0625 7.38672L31 10.6562V12.5938L29.0625 15.5L31 18.4062V20.3438L29.0625 23.6133L31 26.8828V31L29.668 30.5156L28.2754 31H26.8828L23.6133 29.0625L20.3438 31H18.4062L15.5 29.0625L12.5938 31H10.6562L7.38672 29.0625L4.11719 31H0Z" fill="#EEEEEE"/>
<path d="M20.3438 31V24.4609L26.8828 31H20.3438ZM31 26.8828L24.4609 20.3438H31V26.8828ZM0 20.3438H6.53906L0 26.8828V20.3438ZM4.11719 31L10.6562 24.4609V31H4.11719ZM10.6562 0V6.53906L4.11719 0H10.6562ZM0 4.11719L6.53906 10.6562H0V4.11719ZM31 10.6562H24.4609L31 4.11719V10.6562ZM26.8828 0L20.3438 6.53906V0H26.8828Z" fill="#31426D"/>
<path d="M0 31V28.2754L7.93164 20.3438H10.6562L0 31ZM12.5938 31V18.4062H0V12.5938H12.5938V0H18.4062V12.5938H31V18.4062H18.4062V31H12.5938ZM28.2754 31L20.3438 23.0684V20.3438L31 31H28.2754ZM10.6562 10.6562L0 0H2.72461L10.6562 7.93164V10.6562ZM20.3438 10.6562L31 0V2.72461L23.0684 10.6562H20.3438Z" fill="#ED4C5C"/>
</g>
</g>
<defs>
<clipPath id="clip0_452_15745">
<rect width="31" height="31" fill="white" transform="matrix(1 0 0 -1 0 31)"/>
</clipPath>
</defs>
</svg>
