<svg width="31" height="31" viewBox="0 0 31 31" fill="none" xmlns="http://www.w3.org/2000/svg">
<g clip-path="url(#clip0_452_15737)">
<mask id="mask0_452_15737" style="mask-type:luminance" maskUnits="userSpaceOnUse" x="0" y="0" width="31" height="31">
<path d="M15.5 0C24.0604 0 31 6.93959 31 15.5C31 24.0604 24.0604 31 15.5 31C6.93959 31 0 24.0604 0 15.5C0 6.93959 6.93959 0 15.5 0Z" fill="white"/>
</mask>
<g mask="url(#mask0_452_15737)">
<path d="M10.1109 31H20.8883L22.4564 15.724L20.8883 0H10.1109L8.30664 15.3426L10.1109 31Z" fill="#EEEEEE"/>
<path d="M0 31H10.1113V0H0V31Z" fill="#31426D"/>
<path d="M20.8887 31H31V0H20.8887V31Z" fill="#ED4C5C"/>
</g>
</g>
<defs>
<clipPath id="clip0_452_15737">
<rect width="31" height="31" fill="white" transform="matrix(1 0 0 -1 0 31)"/>
</clipPath>
</defs>
</svg>
